<?xml version="1.0" encoding="UTF-8" standalone="no"?>
<svg
   id="Layer_1"
   version="1.1"
   viewBox="0 0 404.47 61.64"
   sodipodi:docname="queens_text.svg"
   inkscape:version="1.2.2 (b0a8486541, 2022-12-01)"
   xmlns:inkscape="http://www.inkscape.org/namespaces/inkscape"
   xmlns:sodipodi="http://sodipodi.sourceforge.net/DTD/sodipodi-0.dtd"
   xmlns="http://www.w3.org/2000/svg"
   xmlns:svg="http://www.w3.org/2000/svg">
  <sodipodi:namedview
     id="namedview100"
     pagecolor="#ffffff"
     bordercolor="#000000"
     borderopacity="0.25"
     inkscape:showpageshadow="2"
     inkscape:pageopacity="0.0"
     inkscape:pagecheckerboard="0"
     inkscape:deskcolor="#d1d1d1"
     showgrid="false"
     inkscape:zoom="3.2388063"
     inkscape:cx="182.78339"
     inkscape:cy="92.781096"
     inkscape:window-width="1854"
     inkscape:window-height="1011"
     inkscape:window-x="66"
     inkscape:window-y="32"
     inkscape:window-maximized="1"
     inkscape:current-layer="Layer_1" />
  <!-- Generator: Adobe Illustrator 29.0.0, SVG Export Plug-In . SVG Version: 2.1.0 Build 186)  -->
  <defs
     id="defs70">
    <style
       id="style68">
      .st0 {
        fill: #020202;
      }

      .st1 {
        isolation: isolate;
      }

      .st2 {
        fill: none;
        stroke-linecap: round;
        stroke-width: 1.87px;
      }

      .st2, .st3 {
        stroke: #fff;
      }

      .st3 {
        fill: #2c6572;
        fill-opacity: .95;
        stroke-miterlimit: 2.48;
        stroke-opacity: 0;
        stroke-width: .83px;
      }
    </style>
    <clipPath
       id="p72f46b56bd">
      <rect
         x="0"
         y="0"
         width="432"
         height="432"
         id="rect2433" />
    </clipPath>
    <clipPath
       id="clipPath3350">
      <rect
         x="0"
         y="0"
         width="432"
         height="432"
         id="rect3348" />
    </clipPath>
    <clipPath
       id="clipPath3354">
      <rect
         x="0"
         y="0"
         width="432"
         height="432"
         id="rect3352" />
    </clipPath>
    <clipPath
       id="clipPath3358">
      <rect
         x="0"
         y="0"
         width="432"
         height="432"
         id="rect3356" />
    </clipPath>
    <clipPath
       id="clipPath3362">
      <rect
         x="0"
         y="0"
         width="432"
         height="432"
         id="rect3360" />
    </clipPath>
  </defs>
  <g
     id="text1308-6"
     class="st1"
     transform="translate(0,-0.43371)">
    <g
       class="st1"
       id="g86">
      <g
         id="g84">
        <path
           class="st0"
           d="m 103.34,61.67 c -4.22,0 -8.15,-0.78 -11.8,-2.35 -3.65,-1.57 -6.84,-3.76 -9.57,-6.58 -2.74,-2.82 -4.87,-6.08 -6.41,-9.79 -1.54,-3.7 -2.31,-7.66 -2.31,-11.88 0,-4.22 0.77,-8.25 2.31,-11.92 1.54,-3.68 3.66,-6.91 6.37,-9.7 2.71,-2.79 5.87,-4.96 9.49,-6.5 3.62,-1.54 7.54,-2.31 11.75,-2.31 4.21,0 8.13,0.77 11.75,2.31 3.62,1.54 6.8,3.71 9.53,6.5 2.74,2.79 4.86,6.04 6.37,9.75 1.51,3.71 2.27,7.69 2.27,11.97 0,4.28 -0.76,8.18 -2.27,11.88 -1.51,3.7 -3.62,6.95 -6.33,9.74 -2.71,2.79 -5.87,4.97 -9.49,6.54 -3.62,1.57 -7.51,2.35 -11.67,2.35 z m -0.17,-7.69 c 4.22,0 7.95,-0.98 11.2,-2.95 3.25,-1.97 5.8,-4.67 7.65,-8.12 1.85,-3.45 2.78,-7.39 2.78,-11.84 0,-3.3 -0.53,-6.34 -1.58,-9.1 -1.06,-2.76 -2.55,-5.17 -4.49,-7.22 -1.94,-2.05 -4.23,-3.63 -6.88,-4.74 -2.65,-1.11 -5.54,-1.67 -8.68,-1.67 -4.22,0 -7.95,0.97 -11.2,2.91 -3.25,1.94 -5.8,4.62 -7.65,8.04 -1.85,3.42 -2.78,7.35 -2.78,11.8 0,3.31 0.54,6.37 1.62,9.19 1.08,2.82 2.58,5.24 4.49,7.27 1.91,2.02 4.19,3.6 6.84,4.74 2.65,1.14 5.54,1.71 8.68,1.71 z m 25.21,7.6 C 121.29,54.49 114.2,47.4 107.1,40.32 c 1.65,-1.83 3.3,-3.65 4.95,-5.48 7.14,7.17 14.29,14.33 21.43,21.5 -1.7,1.75 -3.41,3.49 -5.11,5.24 z"
           id="path72" />
        <path
           class="st0"
           d="m 168.38,61.67 c -4.39,0 -8.32,-1 -11.8,-2.99 -3.48,-1.99 -6.23,-4.72 -8.25,-8.16 -2.02,-3.45 -3.03,-7.34 -3.03,-11.67 V 1.5 h 8.12 v 37.18 c 0,3.14 0.65,5.84 1.97,8.12 1.31,2.28 3.09,4.05 5.34,5.3 2.25,1.25 4.8,1.88 7.65,1.88 2.85,0 5.37,-0.63 7.57,-1.88 2.19,-1.25 3.93,-3.02 5.21,-5.3 1.28,-2.28 1.92,-4.96 1.92,-8.03 V 1.5 h 8.12 v 37.44 c 0,4.33 -1,8.21 -2.99,11.62 -2,3.42 -4.7,6.13 -8.12,8.12 -3.42,2 -7.32,2.99 -11.71,2.99 z"
           id="path74" />
        <path
           class="st0"
           d="M 204.46,60.82 V 1.5 h 8.03 V 60.82 Z M 209.93,8.85 V 1.5 h 33.59 v 7.35 z m 0,25.21 v -7.09 h 31.2 v 7.09 z m 0,26.76 v -7.35 h 34.02 v 7.35 z"
           id="path76" />
        <path
           class="st0"
           d="M 254.89,60.82 V 1.5 h 8.03 V 60.82 Z M 260.36,8.85 V 1.5 h 33.59 v 7.35 z m 0,25.21 v -7.09 h 31.2 v 7.09 z m 0,26.76 v -7.35 h 34.02 v 7.35 z"
           id="path78" />
        <path
           class="st0"
           d="M 305.32,60.82 V 1.5 h 5.64 l 2.39,9.4 v 49.92 h -8.04 z m 41.03,0 -36.41,-48.55 1.03,-10.77 36.5,48.55 -1.11,10.77 z m 0,0 -2.39,-8.8 V 1.5 H 352 v 59.32 h -5.64 z"
           id="path80" />
        <path
           class="st0"
           d="m 381.23,61.67 c -4.62,0 -8.58,-0.86 -11.88,-2.57 -3.31,-1.71 -6.24,-4.19 -8.8,-7.44 l 5.47,-5.47 c 1.88,2.62 4.05,4.6 6.5,5.94 2.45,1.34 5.47,2.01 9.06,2.01 3.59,0 6.37,-0.77 8.5,-2.31 2.14,-1.54 3.21,-3.65 3.21,-6.33 0,-2.22 -0.53,-4.02 -1.58,-5.39 -1.06,-1.37 -2.44,-2.49 -4.15,-3.38 -1.71,-0.88 -3.59,-1.67 -5.64,-2.35 -2.05,-0.68 -4.1,-1.44 -6.15,-2.27 -2.05,-0.83 -3.95,-1.87 -5.68,-3.12 -1.74,-1.25 -3.12,-2.86 -4.15,-4.83 -1.03,-1.97 -1.54,-4.49 -1.54,-7.57 0,-3.36 0.81,-6.22 2.44,-8.59 1.63,-2.37 3.85,-4.19 6.67,-5.47 2.82,-1.28 6,-1.92 9.53,-1.92 3.87,0 7.35,0.76 10.43,2.27 3.08,1.51 5.58,3.49 7.52,5.94 l -5.47,5.47 c -1.77,-2.05 -3.66,-3.59 -5.68,-4.62 -2.02,-1.03 -4.35,-1.54 -6.97,-1.54 -3.19,0 -5.73,0.7 -7.61,2.09 -1.88,1.4 -2.82,3.35 -2.82,5.86 0,2 0.53,3.6 1.58,4.83 1.05,1.23 2.44,2.27 4.15,3.12 1.71,0.85 3.6,1.64 5.68,2.35 2.08,0.71 4.15,1.5 6.2,2.35 2.05,0.86 3.93,1.94 5.64,3.25 1.71,1.31 3.09,3.01 4.15,5.09 1.05,2.08 1.58,4.69 1.58,7.82 0,5.24 -1.81,9.35 -5.43,12.31 -3.62,2.96 -8.53,4.45 -14.75,4.45 z"
           id="path82" />
      </g>
    </g>
  </g>
  <g
     id="figure_1"
     style="stroke-linecap:butt;stroke-linejoin:round"
     transform="matrix(0.14136574,0,0,0.14136574,0.33166718,0.17629)">
    <g
       id="patch_1"
       style="stroke-linecap:butt;stroke-linejoin:round">
      <path
         d="M 0,432 H 432 V 0 H 0 Z"
         style="fill:#2c6572;stroke-linecap:butt;stroke-linejoin:round"
         id="path2413" />
    </g>
    <g
       id="axes_1"
       style="stroke-linecap:butt;stroke-linejoin:round">
      <g
         id="line2d_1"
         style="stroke-linecap:butt;stroke-linejoin:round">
        <path
           d="m 19.636364,412.36364 45.556363,-0.10853 16.887273,-0.27074 12.96,-0.42072 10.99636,-0.56933 9.81819,-0.72309 9.03272,-0.88498 8.24727,-1.02536 7.85455,-1.19868 7.46182,-1.3655 7.06909,-1.52055 6.67636,-1.659 6.67637,-1.89494 6.28363,-2.0164 6.28364,-2.25904 5.89091,-2.35301 5.89091,-2.59468 5.89091,-2.85016 5.49818,-2.90283 5.49818,-3.14853 5.49818,-3.40526 5.49818,-3.6728 5.49819,-3.95095 5.49818,-4.23935 5.49818,-4.53764 5.49818,-4.84531 5.49818,-5.1618 5.49818,-5.48642 5.49819,-5.81834 5.49818,-6.15662 5.49818,-6.50011 5.49818,-6.84752 5.49819,-7.1973 5.49818,-7.54766 5.8909,-8.47376 5.89091,-8.8691 6.28364,-9.88597 6.28364,-10.30877 6.67636,-11.38918 7.06909,-12.50442 7.85455,-14.35079 10.21091,-19.16522 17.28,-32.50735 5.8909,-10.56161 4.71273,-7.99483 3.92728,-6.21055 3.14181,-4.57215 2.74909,-3.63298 2.35637,-2.7789 1.96363,-2.03321 1.96364,-1.73051 1.57091,-1.13154 1.57091,-0.87208 1.57091,-0.57396 1.17818,-0.20706 1.17818,0.0103 1.17818,0.25535 1.17818,0.5335 1.17819,0.85158 1.17818,1.21858 1.17818,1.64657 1.17818,2.15213 1.17818,2.75885 1.17819,3.50145 1.17818,4.43357 1.17818,5.64306 1.17818,7.28563 0.78546,6.11392 0.78545,7.52295 0.78546,9.54335 0.78545,12.73703 0.78545,18.74739 0.39273,14.09048 0.39273,22.14811 0.39273,153.69333 v 0"
           clip-path="url(#p72f46b56bd)"
           style="fill:none;stroke:#ffffff;stroke-width:11;stroke-linecap:round;stroke-linejoin:round"
           id="path2416" />
      </g>
      <g
         id="line2d_2"
         style="stroke-linecap:butt;stroke-linejoin:round">
        <path
           d="m 19.636364,412.36364 0.392727,-153.69333 0.392727,-22.14811 0.785455,-24.53305 0.785454,-15.18585 0.785455,-10.93421 0.785454,-8.43294 1.178182,-9.66907 1.178182,-7.28563 1.178182,-5.64306 1.178182,-4.43357 1.178181,-3.50145 1.178182,-2.75885 1.178182,-2.15213 1.178182,-1.64657 1.178182,-1.21858 1.178182,-0.85158 1.178181,-0.5335 1.178182,-0.25535 1.178182,-0.0103 1.178182,0.20706 1.178182,0.40085 1.570909,0.80145 1.570909,1.06993 1.963636,1.66401 1.963637,1.9764 2.356363,2.72122 2.749091,3.57746 3.141818,4.52115 3.534546,5.52377 3.927272,6.5551 5.105455,8.99714 6.283636,11.55147 10.996364,20.77209 12.96,24.36011 8.24727,15.0337 7.46182,13.13519 6.67637,11.31234 6.28363,10.23109 6.28364,9.80463 5.89091,8.79061 5.8909,8.39398 5.89091,7.99298 5.49819,7.09722 5.49818,6.74795 5.49818,6.40151 5.49818,6.05938 5.49818,5.72282 5.49818,5.39288 5.49819,5.07052 5.49818,4.75647 5.49818,4.45143 5.49818,4.15593 5.49818,3.87041 5.49819,3.59528 5.49818,3.33079 5.49818,3.0772 5.49818,2.83466 5.89091,2.78068 5.89091,2.52888 5.89091,2.2909 6.28363,2.19683 6.28364,1.95832 6.67636,1.83769 6.67637,1.60626 7.06909,1.46952 7.46182,1.31684 7.85454,1.15303 8.24728,0.98333 9.03272,0.84548 9.81818,0.68743 10.99637,0.53762 12.56727,0.38441 15.70909,0.24316 22.38546,0.10117 23.17091,0.007 v 0"
           clip-path="url(#p72f46b56bd)"
           style="fill:none;stroke:#ffffff;stroke-width:11;stroke-linecap:round;stroke-linejoin:round"
           id="path2419" />
      </g>
      <g
         id="line2d_3"
         style="stroke-linecap:butt;stroke-linejoin:round">
        <path
           d="m 19.636364,412.36364 29.061818,-0.10693 10.996363,-0.26507 8.64,-0.41667 7.461819,-0.57003 6.676363,-0.72013 6.283637,-0.89534 5.890909,-1.06112 5.498177,-1.20866 5.49819,-1.44196 5.10545,-1.56664 5.10546,-1.80294 4.71272,-1.88774 4.71273,-2.11442 4.71273,-2.35213 4.71272,-2.59997 4.71273,-2.85698 4.71273,-3.12202 4.71273,-3.39392 4.71272,-3.67136 4.71273,-3.95294 4.71273,-4.23716 4.71272,-4.52242 5.10546,-5.22042 5.10545,-5.55125 5.10546,-5.87634 5.49818,-6.68217 5.49818,-7.03515 5.89091,-7.90864 6.28364,-8.82831 6.67636,-9.77932 7.46182,-11.34623 8.64,-13.56423 12.96,-20.82731 13.74545,-21.99635 7.85455,-12.14256 6.28364,-9.30588 5.49818,-7.74085 4.71272,-6.26741 4.32,-5.39519 3.92728,-4.57435 3.92727,-4.22279 3.53455,-3.46952 3.14181,-2.79773 3.14182,-2.50775 2.74909,-1.94064 2.74909,-1.68964 2.74909,-1.42481 2.7491,-1.14602 2.35636,-0.74974 2.35636,-0.52563 2.35637,-0.29252 2.35636,-0.0504 2.35637,0.20076 2.35636,0.46096 2.35636,0.7302 2.35636,1.00845 2.35637,1.29565 2.35636,1.59174 2.35637,1.89661 2.35636,2.21015 2.35636,2.53219 2.35637,2.86257 2.35636,3.20103 2.35636,3.54733 2.74909,4.58625 2.7491,5.07912 2.74909,5.58247 2.74909,6.09535 2.74909,6.61656 2.74909,7.14479 3.14182,8.81903 3.14182,9.52069 3.14181,10.22305 3.53455,12.33467 3.53454,13.20147 3.53455,14.03813 3.92727,16.5187 4.32,19.16334 5.49818,25.51012 7.46182,34.70081 2.35637,9.85185 1.17818,4.12338 0.39273,0.97829 v 0"
           clip-path="url(#p72f46b56bd)"
           style="fill:none;stroke:#ffffff;stroke-width:11;stroke-linecap:round;stroke-linejoin:round"
           id="path2422" />
      </g>
      <g
         id="line2d_4"
         style="stroke-linecap:butt;stroke-linejoin:round">
        <path
           d="m 19.636364,412.36364 0.785454,-2.23852 1.178182,-4.40287 1.963636,-8.31213 3.534546,-16.1911 10.996363,-51.097 4.32,-18.80454 3.927273,-16.14016 3.534546,-13.67107 3.534545,-12.81904 3.534546,-11.94351 3.141818,-9.87207 3.141818,-9.1695 3.141818,-8.46979 3.141818,-7.77666 2.749091,-6.24346 2.749091,-5.72808 2.749091,-5.22191 2.749091,-4.72595 2.749091,-4.24108 2.356363,-3.25821 2.356364,-2.91842 2.356364,-2.58668 2.356363,-2.26324 2.356364,-1.94826 2.356364,-1.64195 2.356363,-1.34438 2.356363,-1.0557 2.35637,-0.77595 2.35636,-0.50521 2.35636,-0.2435 2.35636,0.009 2.35637,0.2528 2.35636,0.4874 2.35637,0.71301 2.35636,0.92966 2.74909,1.34659 2.74909,1.61539 2.74909,1.87033 3.14182,2.43213 3.14182,2.72709 3.53454,3.39591 3.53455,3.71653 3.92727,4.47269 4.32,5.29561 4.32,5.64408 5.10546,7.0583 5.49818,7.99421 6.28363,9.52998 7.85455,12.33123 12.96,20.84046 13.74545,21.98338 8.64,13.39361 7.0691,10.57217 6.67636,9.59189 6.28364,8.63001 5.8909,7.70676 5.49819,6.83542 5.49818,6.47384 5.10545,5.67711 5.10546,5.34817 5.10545,5.01509 4.71273,4.33222 4.71273,4.04746 4.71273,3.76483 4.71272,3.48586 4.71273,3.21195 4.71273,2.94449 4.71272,2.68468 4.71273,2.43366 4.71273,2.19247 4.71272,1.96202 5.10546,1.87889 5.10546,1.63761 5.10545,1.41274 5.49818,1.28948 5.89091,1.13893 5.89091,0.91462 6.28363,0.75919 7.0691,0.62714 7.85454,0.46812 9.42546,0.32359 11.78182,0.16877 21.99272,0.0412 h 0.78546 v 0"
           clip-path="url(#p72f46b56bd)"
           style="fill:none;stroke:#ffffff;stroke-width:11;stroke-linecap:round;stroke-linejoin:round"
           id="path2425" />
      </g>
      <g
         id="line2d_5"
         style="stroke-linecap:butt;stroke-linejoin:round">
        <path
           d="M 19.636364,412.36364 30.24,411.37032 l 9.032727,-1.06056 8.247273,-1.19008 7.461818,-1.30661 6.676364,-1.39855 5.890909,-1.45313 5.498182,-1.57842 5.105454,-1.69301 4.712728,-1.79055 4.32,-1.8642 4.32,-2.10994 3.927272,-2.16219 3.927273,-2.42736 3.53454,-2.44128 3.53455,-2.7155 3.53455,-3.02352 3.14182,-2.97679 3.14181,-3.27984 3.14182,-3.6157 3.14182,-3.98769 2.74909,-3.82541 2.74909,-4.16926 2.74909,-4.54405 2.74909,-4.95191 2.74909,-5.39489 2.74909,-5.87485 2.74909,-6.39339 2.7491,-6.95169 2.74909,-7.55028 2.74909,-8.18895 2.74909,-8.86635 2.74909,-9.5798 2.74909,-10.3249 3.14182,-12.74411 3.14182,-13.77267 3.14181,-14.80297 3.53455,-17.85132 3.53455,-19.03133 3.92727,-22.33348 5.49818,-32.71207 8.24727,-49.22292 3.53455,-19.707776 2.74909,-14.156486 2.35636,-11.05678 1.96364,-8.306087 1.96364,-7.366909 1.5709,-5.150925 1.57091,-4.441309 1.57091,-3.691595 1.17818,-2.255999 1.17819,-1.803168 1.17818,-1.340768 0.78545,-0.633315 0.78546,-0.423054 0.78545,-0.211781 h 0.78546 l 0.78545,0.211781 0.78546,0.423054 0.78545,0.633315 1.17818,1.340768 1.17818,1.803168 1.17819,2.255999 1.17818,2.696973 1.57091,4.257414 1.57091,4.977585 1.5709,5.653584 1.96364,7.942795 1.96364,8.818915 2.35636,11.584106 2.74909,14.646926 3.53455,20.143059 5.49818,32.88614 7.46182,44.48677 4.32,24.37626 3.53454,18.78024 3.53455,17.57467 3.14182,14.54663 3.14181,13.51444 3.14182,12.48985 3.14182,11.49242 2.74909,9.26986 2.74909,8.57143 2.7491,7.91039 2.74908,7.2888 2.7491,6.7075 2.74909,6.16635 2.74909,5.66451 2.74909,5.20062 2.74909,4.77293 2.74909,4.3795 3.14182,4.56454 3.14182,4.1372 3.14181,3.75079 3.14182,3.40177 3.14182,3.08679 3.14182,2.80265 3.53454,2.84798 3.53455,2.55923 3.53455,2.30216 3.92727,2.29053 3.92727,2.04177 4.32,1.99401 4.71273,1.91318 4.71273,1.67672 5.10545,1.58726 5.49818,1.4817 5.89091,1.36594 6.67636,1.31658 7.46182,1.23203 8.24728,1.12412 9.03272,1.00364 8.24728,0.75145 v 0"
           clip-path="url(#p72f46b56bd)"
           style="fill:none;stroke:#ffffff;stroke-width:11;stroke-linecap:round;stroke-linejoin:round"
           id="path2428" />
      </g>
    </g>
  </g>
</svg>
