<?xml version="1.0" encoding="UTF-8" standalone="no"?>
<!-- Created with Inkscape (http://www.inkscape.org/) -->

<svg
   xmlns:dc="http://purl.org/dc/elements/1.1/"
   xmlns:cc="http://creativecommons.org/ns#"
   xmlns:rdf="http://www.w3.org/1999/02/22-rdf-syntax-ns#"
   xmlns:svg="http://www.w3.org/2000/svg"
   xmlns="http://www.w3.org/2000/svg"
   xmlns:sodipodi="http://sodipodi.sourceforge.net/DTD/sodipodi-0.dtd"
   xmlns:inkscape="http://www.inkscape.org/namespaces/inkscape"
   width="560mm"
   height="90mm"
   viewBox="0 0 560 90"
   version="1.1"
   id="svg8"
   sodipodi:docname="queens_logo_with_sidetext_day.svg"
   inkscape:version="0.92.5 (2060ec1f9f, 2020-04-08)"
   inkscape:export-filename="/home/rei/workspace/queens-design/logo_with_side_text/queens_logo_with_side_text_day.png"
   inkscape:export-xdpi="600"
   inkscape:export-ydpi="600">
  <defs
     id="defs2">
    <inkscape:path-effect
       effect="bspline"
       id="path-effect838"
       is_visible="true"
       weight="33.333333"
       steps="2"
       helper_size="0"
       apply_no_weight="true"
       apply_with_weight="true"
       only_selected="false" />
    <inkscape:path-effect
       effect="bspline"
       id="path-effect834"
       is_visible="true"
       weight="33.333333"
       steps="2"
       helper_size="0"
       apply_no_weight="true"
       apply_with_weight="true"
       only_selected="false" />
    <inkscape:path-effect
       effect="bspline"
       id="path-effect830"
       is_visible="true"
       weight="33.333333"
       steps="2"
       helper_size="0"
       apply_no_weight="true"
       apply_with_weight="true"
       only_selected="false" />
    <inkscape:path-effect
       effect="bspline"
       id="path-effect838-3"
       is_visible="true"
       weight="33.333333"
       steps="2"
       helper_size="0"
       apply_no_weight="true"
       apply_with_weight="true"
       only_selected="false" />
    <inkscape:path-effect
       effect="bspline"
       id="path-effect834-7"
       is_visible="true"
       weight="33.333333"
       steps="2"
       helper_size="0"
       apply_no_weight="true"
       apply_with_weight="true"
       only_selected="false" />
    <inkscape:path-effect
       effect="bspline"
       id="path-effect830-5"
       is_visible="true"
       weight="33.333333"
       steps="2"
       helper_size="0"
       apply_no_weight="true"
       apply_with_weight="true"
       only_selected="false" />
    <inkscape:path-effect
       effect="bspline"
       id="path-effect838-3-6"
       is_visible="true"
       weight="33.333333"
       steps="2"
       helper_size="0"
       apply_no_weight="true"
       apply_with_weight="true"
       only_selected="false" />
    <inkscape:path-effect
       effect="bspline"
       id="path-effect838-3-9"
       is_visible="true"
       weight="33.333333"
       steps="2"
       helper_size="0"
       apply_no_weight="true"
       apply_with_weight="true"
       only_selected="false" />
    <inkscape:path-effect
       effect="bspline"
       id="path-effect838-3-0"
       is_visible="true"
       weight="33.333333"
       steps="2"
       helper_size="0"
       apply_no_weight="true"
       apply_with_weight="true"
       only_selected="false" />
    <inkscape:path-effect
       effect="bspline"
       id="path-effect838-3-3"
       is_visible="true"
       weight="33.333333"
       steps="2"
       helper_size="0"
       apply_no_weight="true"
       apply_with_weight="true"
       only_selected="false" />
    <inkscape:path-effect
       effect="bspline"
       id="path-effect834-0"
       is_visible="true"
       weight="33.333333"
       steps="2"
       helper_size="0"
       apply_no_weight="true"
       apply_with_weight="true"
       only_selected="false" />
    <inkscape:path-effect
       effect="bspline"
       id="path-effect834-0-2"
       is_visible="true"
       weight="33.333333"
       steps="2"
       helper_size="0"
       apply_no_weight="true"
       apply_with_weight="true"
       only_selected="false" />
    <inkscape:path-effect
       effect="bspline"
       id="path-effect830-1"
       is_visible="true"
       weight="33.333333"
       steps="2"
       helper_size="0"
       apply_no_weight="true"
       apply_with_weight="true"
       only_selected="false" />
    <inkscape:path-effect
       effect="bspline"
       id="path-effect830-7"
       is_visible="true"
       weight="33.333333"
       steps="2"
       helper_size="0"
       apply_no_weight="true"
       apply_with_weight="true"
       only_selected="false" />
    <inkscape:path-effect
       effect="bspline"
       id="path-effect830-1-9"
       is_visible="true"
       weight="33.333333"
       steps="2"
       helper_size="0"
       apply_no_weight="true"
       apply_with_weight="true"
       only_selected="false" />
    <inkscape:path-effect
       effect="bspline"
       id="path-effect838-3-3-2"
       is_visible="true"
       weight="33.333333"
       steps="2"
       helper_size="0"
       apply_no_weight="true"
       apply_with_weight="true"
       only_selected="false" />
    <inkscape:path-effect
       effect="bspline"
       id="path-effect834-02"
       is_visible="true"
       weight="33.333333"
       steps="2"
       helper_size="0"
       apply_no_weight="true"
       apply_with_weight="true"
       only_selected="false" />
    <inkscape:path-effect
       effect="bspline"
       id="path-effect834-0-2-3"
       is_visible="true"
       weight="33.333333"
       steps="2"
       helper_size="0"
       apply_no_weight="true"
       apply_with_weight="true"
       only_selected="false" />
    <inkscape:path-effect
       effect="bspline"
       id="path-effect830-3"
       is_visible="true"
       weight="33.333333"
       steps="2"
       helper_size="0"
       apply_no_weight="true"
       apply_with_weight="true"
       only_selected="false" />
    <inkscape:path-effect
       effect="bspline"
       id="path-effect830-1-6"
       is_visible="true"
       weight="33.333333"
       steps="2"
       helper_size="0"
       apply_no_weight="true"
       apply_with_weight="true"
       only_selected="false" />
  </defs>
  <sodipodi:namedview
     id="base"
     pagecolor="#ffffff"
     bordercolor="#666666"
     borderopacity="1.0"
     inkscape:pageopacity="0.0"
     inkscape:pageshadow="2"
     inkscape:zoom="0.35"
     inkscape:cx="750.49014"
     inkscape:cy="-137.01996"
     inkscape:document-units="mm"
     inkscape:current-layer="text1228"
     showgrid="false"
     inkscape:window-width="1920"
     inkscape:window-height="1163"
     inkscape:window-x="1920"
     inkscape:window-y="0"
     inkscape:window-maximized="1" />
  <metadata
     id="metadata5">
    <rdf:RDF>
      <cc:Work
         rdf:about="">
        <dc:format>image/svg+xml</dc:format>
        <dc:type
           rdf:resource="http://purl.org/dc/dcmitype/StillImage" />
        <dc:title />
      </cc:Work>
    </rdf:RDF>
  </metadata>
  <g
     inkscape:label="Layer 1"
     inkscape:groupmode="layer"
     id="layer1"
     transform="translate(0,-207)">
    <g
       id="g856"
       transform="translate(-1.1739983,37.009748)">
      <g
         transform="translate(-217.43369,213.50992)"
         id="g1045">
        <path
           id="path836-6-6"
           transform="matrix(-1,0,0,1,413.40606,-137.58332)"
           style="fill:none;stroke:#5cbbfe;stroke-width:1.5;stroke-linecap:round;stroke-linejoin:miter;stroke-miterlimit:4;stroke-dasharray:none;stroke-dashoffset:0;stroke-opacity:1"
           inkscape:path-effect="#path-effect838-3-3"
           inkscape:original-d="m 17.907061,172.71965 c 14.90436,-2.11232 29.80846,-4.22438 44.71229,-6.33618 7.8946,-5.85541 15.78914,-11.71071 23.683,-17.56544 2.68213,-9.91687 5.36406,-19.83374 8.0458,-29.75059 2.532359,-7.28476 5.064246,-14.56866 7.596089,-21.852934 1.34302,-0.79135 2.73778,-1.613081 4.02814,-2.373185 1.29087,0.760104 2.68567,1.581852 4.02813,2.373185 2.53232,7.284114 5.06421,14.568034 7.59609,21.852934 2.68174,9.91685 5.36367,19.83372 8.0458,29.75059 7.89386,5.85473 15.7884,11.71003 23.683,17.56544 14.90383,2.1118 29.80793,4.22386 44.71229,6.33618"
           d="m 17.907061,172.71965 c 14.904391,-2.1121 29.808491,-4.22416 41.207706,-8.20785 11.399215,-3.9837 19.293755,-9.839 24.581644,-17.72484 5.287888,-7.88585 7.969823,-17.80272 10.576884,-26.40353 2.60706,-8.6008 5.138947,-15.8847 7.076475,-19.92245 1.93754,-4.037744 3.3323,-4.859471 4.6228,-4.859358 1.2905,1.12e-4 2.6853,0.821862 4.62262,4.859488 1.93732,4.03762 4.46921,11.32154 7.07627,19.92234 2.60706,8.60079 5.28899,18.51766 10.57688,26.40351 5.28789,7.88584 13.18243,13.74114 24.58164,17.72484 11.39922,3.98369 26.30332,6.09575 41.20771,8.20785"
           inkscape:connector-curvature="0"
           sodipodi:nodetypes="ccccccccccc" />
        <g
           id="g1039">
          <path
             transform="translate(201.46131,-137.58333)"
             sodipodi:nodetypes="cccccc"
             inkscape:original-d="m 17.907059,172.71966 c 4.921936,-6.62252 9.886989,-13.30315 14.859939,-19.9945 7.369748,-4.62605 14.680817,-9.21516 22.019979,-13.82181 5.306343,-0.29248 10.613241,-0.58475 15.919465,-0.87673 14.953523,10.02756 29.906788,20.0554 44.859778,30.0835 26.15741,1.53625 52.31458,3.07276 78.47147,4.60954"
             inkscape:path-effect="#path-effect834"
             inkscape:connector-curvature="0"
             id="path832"
             d="m 17.907059,172.71966 c 4.921891,-6.62255 9.886944,-13.30318 16.058339,-18.96183 6.171394,-5.65865 13.482461,-10.24776 19.805198,-12.69724 6.322737,-2.44948 11.629636,-2.74174 21.759398,2.12608 10.129763,4.86782 25.083026,14.89566 45.638326,20.67782 20.55529,5.78216 46.71246,7.31867 72.86937,8.85517"
             style="fill:none;stroke:#5cbbfe;stroke-width:1.5;stroke-linecap:round;stroke-linejoin:miter;stroke-miterlimit:4;stroke-dasharray:none;stroke-opacity:1" />
          <path
             transform="matrix(-1,0,0,1,413.40606,-137.58333)"
             sodipodi:nodetypes="cccccc"
             inkscape:original-d="m 17.907059,172.71966 c 4.921936,-6.62252 9.886989,-13.30315 14.859939,-19.9945 7.369748,-4.62605 14.680817,-9.21516 22.019979,-13.82181 5.306343,-0.29248 10.613241,-0.58475 15.919465,-0.87673 14.953523,10.02756 29.906788,20.0554 44.859778,30.0835 26.15741,1.53625 52.31458,3.07276 78.47147,4.60954"
             inkscape:path-effect="#path-effect834-0-2"
             inkscape:connector-curvature="0"
             id="path832-6-6"
             d="m 17.907059,172.71966 c 4.921891,-6.62255 9.886944,-13.30318 16.058339,-18.96183 6.171394,-5.65865 13.482461,-10.24776 19.805198,-12.69724 6.322737,-2.44948 11.629636,-2.74174 21.759398,2.12608 10.129763,4.86782 25.083026,14.89566 45.638326,20.67782 20.55529,5.78216 46.71246,7.31867 72.86937,8.85517"
             style="fill:none;stroke:#5cbbfe;stroke-width:1.5;stroke-linecap:round;stroke-linejoin:miter;stroke-miterlimit:4;stroke-dasharray:none;stroke-opacity:1" />
        </g>
      </g>
      <g
         style="stroke:#000000;stroke-opacity:1"
         transform="translate(-217.43369,213.50992)"
         id="g1035">
        <path
           style="fill:none;stroke:#000000;stroke-width:1.5;stroke-linecap:round;stroke-linejoin:miter;stroke-miterlimit:4;stroke-dasharray:none;stroke-opacity:1"
           d="m 17.907059,172.71966 c 0.846353,-13.76438 1.692787,-27.53006 4.365426,-36.14883 2.672639,-8.61878 7.172008,-12.09354 15.390379,-6.90397 8.218372,5.18958 20.156445,19.04309 39.444492,27.618 19.288048,8.57491 45.882044,11.86581 66.629594,13.56129 20.74754,1.69549 35.51209,1.78442 50.30074,1.87351"
           id="path828"
           inkscape:connector-curvature="0"
           inkscape:path-effect="#path-effect830"
           inkscape:original-d="m 17.907059,172.71966 c 0,0 1.693034,-27.53004 2.53906,-41.29313 4.498975,-3.47452 8.998346,-6.94928 13.497112,-10.42352 11.938285,13.85319 23.876357,27.7067 35.814116,41.56041 26.638093,3.29606 53.232093,6.58696 79.913593,9.88898 14.81355,0.089 29.5781,0.17791 44.36675,0.26726"
           sodipodi:nodetypes="cccccc"
           transform="translate(201.46131,-137.58333)" />
        <path
           style="fill:none;stroke:#000000;stroke-width:1.5;stroke-linecap:round;stroke-linejoin:miter;stroke-miterlimit:4;stroke-dasharray:none;stroke-opacity:1"
           d="m 17.907059,172.71966 c 0.846353,-13.76438 1.692787,-27.53006 4.365426,-36.14883 2.672639,-8.61878 7.172008,-12.09354 15.390379,-6.90397 8.218372,5.18958 20.156445,19.04309 39.444492,27.618 19.288048,8.57491 45.882044,11.86581 66.629594,13.56129 20.74754,1.69549 35.51209,1.78442 50.30074,1.87351"
           id="path828-8"
           inkscape:connector-curvature="0"
           inkscape:path-effect="#path-effect830-1"
           inkscape:original-d="m 17.907059,172.71966 c 0,0 1.693034,-27.53004 2.53906,-41.29313 4.498975,-3.47452 8.998346,-6.94928 13.497112,-10.42352 11.938285,13.85319 23.876357,27.7067 35.814116,41.56041 26.638093,3.29606 53.232093,6.58696 79.913593,9.88898 14.81355,0.089 29.5781,0.17791 44.36675,0.26726"
           sodipodi:nodetypes="cccccc"
           transform="matrix(-1,0,0,1,413.40606,-137.58333)" />
      </g>
    </g>
    <g
       aria-label="QUEENS"
       style="font-style:normal;font-weight:normal;font-size:8.46666622px;line-height:1.25;font-family:sans-serif;letter-spacing:0px;word-spacing:0px;fill:#000001;fill-opacity:1;stroke:none;stroke-width:0.26458332;stroke-opacity:1"
       id="text1228">
      <path
         d="m 227.54984,226.70799 q -9.47401,0 -15.07229,7.06244 -5.55522,7.06245 -5.55522,19.24947 0,12.14397 5.55522,19.20641 5.59828,7.06245 15.07229,7.06245 9.47401,0 14.98616,-7.06245 5.55522,-7.06244 5.55522,-19.20641 0,-12.18702 -5.55522,-19.24947 -5.51215,-7.06244 -14.98616,-7.06244 z m 12.18702,57.23165 11.45495,12.53153 h -10.50754 l -9.51708,-10.29222 q -1.4211,0.0861 -2.19625,0.12919 -0.73208,0.0431 -1.4211,0.0431 -13.56506,0 -21.7041,-9.04337 -8.09598,-9.08644 -8.09598,-24.28793 0,-15.24454 8.09598,-24.28792 8.13904,-9.08644 21.7041,-9.08644 13.522,0 21.61797,9.08644 8.09598,9.04338 8.09598,24.28792 0,11.19656 -4.52169,19.16335 -4.47862,7.96678 -13.00524,11.75639 z"
         style="font-size:88.19444275px;letter-spacing:0.79374999px;fill:#000001;fill-opacity:1;stroke:none;stroke-width:0.26458332;stroke-opacity:1"
         id="path843" />
      <path
         d="m 270.67519,220.80826 h 8.74193 v 39.05877 q 0,10.33529 3.74655,14.90004 3.74654,4.52169 12.14396,4.52169 8.35435,0 12.10089,-4.52169 3.74655,-4.56475 3.74655,-14.90004 v -39.05877 h 8.74193 v 40.13536 q 0,12.5746 -6.24424,18.99109 -6.20117,6.41649 -18.34513,6.41649 -12.18703,0 -18.43126,-6.41649 -6.20118,-6.41649 -6.20118,-18.99109 z"
         style="font-size:88.19444275px;letter-spacing:0.79374999px;fill:#000001;fill-opacity:1;stroke:none;stroke-width:0.26458332;stroke-opacity:1"
         id="path845" />
      <path
         d="m 337.01188,220.80826 h 40.65213 v 7.32083 h -31.95326 v 19.03415 h 30.61828 v 7.32083 h -30.61828 v 23.29746 h 32.7284 v 7.32083 h -41.42727 z"
         style="font-size:88.19444275px;letter-spacing:0.79374999px;fill:#000001;fill-opacity:1;stroke:none;stroke-width:0.26458332;stroke-opacity:1"
         id="path847" />
      <path
         d="m 393.53005,220.80826 h 40.65213 v 7.32083 h -31.95326 v 19.03415 h 30.61829 v 7.32083 h -30.61829 v 23.29746 h 32.72841 v 7.32083 h -41.42728 z"
         style="font-size:88.19444275px;letter-spacing:0.79374999px;fill:#000001;fill-opacity:1;stroke:none;stroke-width:0.26458332;stroke-opacity:1"
         id="path849" />
      <path
         d="m 450.04823,220.80826 h 11.71332 l 28.50817,53.78655 v -53.78655 h 8.44048 v 64.2941 H 486.99688 L 458.48871,231.3158 v 53.78656 h -8.44048 z"
         style="font-size:88.19444275px;letter-spacing:0.79374999px;fill:#000001;fill-opacity:1;stroke:none;stroke-width:0.26458332;stroke-opacity:1"
         id="path851" />
      <path
         d="m 555.35755,222.91838 v 8.48355 q -4.95232,-2.3685 -9.34482,-3.53122 -4.3925,-1.16272 -8.48355,-1.16272 -7.10551,0 -10.98124,2.75607 -3.83267,2.75608 -3.83267,7.8376 0,4.2633 2.54076,6.45955 2.58382,2.15319 9.73239,3.48816 l 5.25378,1.07659 q 9.73239,1.85174 14.34021,6.54568 4.65087,4.65088 4.65087,12.48847 0,9.34483 -6.2873,14.16796 -6.24423,4.82313 -18.34513,4.82313 -4.56475,0 -9.73239,-1.03353 -5.12458,-1.03352 -10.63674,-3.05752 v -8.95725 q 5.29684,2.9714 10.37835,4.47863 5.08152,1.50723 9.99078,1.50723 7.45002,0 11.49801,-2.92833 4.04798,-2.92833 4.04798,-8.35436 0,-4.73701 -2.92833,-7.40696 -2.88526,-2.66994 -9.51707,-4.00492 l -5.29684,-1.03353 q -9.73239,-1.93786 -14.08182,-6.07198 -4.34944,-4.13411 -4.34944,-11.498 0,-8.52662 5.98586,-13.43588 6.02891,-4.90926 16.57952,-4.90926 4.52169,0 9.21563,0.81821 4.69394,0.81821 9.6032,2.45463 z"
         style="font-size:88.19444275px;letter-spacing:0.79374999px;fill:#000001;fill-opacity:1;stroke:none;stroke-width:0.26458332;stroke-opacity:1"
         id="path853" />
    </g>
  </g>
</svg>
