<?xml version="1.0" encoding="UTF-8"?>
<svg id="Layer_1" xmlns="http://www.w3.org/2000/svg" version="1.1" xmlns:xlink="http://www.w3.org/1999/xlink" viewBox="0 0 432 432">
  <!-- Generator: Adobe Illustrator 29.0.0, SVG Export Plug-In . SVG Version: 2.1.0 Build 186)  -->
  <defs>
    <style>
      .st0 {
        clip-path: url(#clippath-4);
      }

      .st1 {
        fill: #2f6673;
      }

      .st2 {
        stroke: #fff;
        stroke-linecap: round;
        stroke-linejoin: round;
        stroke-width: 7.79px;
      }

      .st2, .st3 {
        fill: none;
      }

      .st4 {
        clip-path: url(#clippath-1);
      }

      .st5 {
        clip-path: url(#clippath-3);
      }

      .st6 {
        clip-path: url(#clippath-2);
      }

      .st7 {
        clip-path: url(#clippath);
      }
    </style>
    <clipPath id="clippath">
      <rect class="st3" x="63" y="63" width="306" height="306"/>
    </clipPath>
    <clipPath id="clippath-1">
      <rect class="st3" x="63" y="63" width="306" height="306"/>
    </clipPath>
    <clipPath id="clippath-2">
      <rect class="st3" x="63" y="63" width="306" height="306"/>
    </clipPath>
    <clipPath id="clippath-3">
      <rect class="st3" x="63" y="63" width="306" height="306"/>
    </clipPath>
    <clipPath id="clippath-4">
      <rect class="st3" x="63" y="63" width="306" height="306"/>
    </clipPath>
  </defs>
  <rect class="st1" width="432" height="432"/>
  <g>
    <g class="st7">
      <polyline class="st2" points="76.91 355.09 109.18 355.01 121.14 354.82 130.32 354.52 138.11 354.12 145.06 353.61 151.46 352.98 157.3 352.26 162.87 351.41 168.15 350.44 173.16 349.36 177.89 348.19 182.62 346.84 187.07 345.42 191.52 343.82 195.69 342.15 199.87 340.31 204.04 338.29 207.93 336.24 211.83 334.01 215.72 331.59 219.62 328.99 223.51 326.19 227.41 323.19 231.3 319.98 235.19 316.55 239.09 312.89 242.98 309 246.88 304.88 250.77 300.52 254.67 295.92 258.56 291.07 262.46 285.97 266.35 280.62 270.52 274.62 274.7 268.34 279.15 261.33 283.6 254.03 288.33 245.97 293.33 237.11 298.9 226.94 306.13 213.37 318.37 190.34 322.54 182.86 325.88 177.2 328.66 172.8 330.89 169.56 332.84 166.99 334.51 165.02 335.9 163.58 337.29 162.35 338.4 161.55 339.51 160.93 340.63 160.53 341.46 160.38 342.29 160.39 343.13 160.57 343.96 160.95 344.8 161.55 345.63 162.41 346.47 163.58 347.3 165.1 348.14 167.06 348.97 169.54 349.81 172.68 350.64 176.67 351.47 181.84 352.03 186.17 352.59 191.49 353.14 198.25 353.7 207.28 354.26 220.56 354.53 230.54 354.81 246.22 355.09 355.09"/>
    </g>
    <g class="st4">
      <polyline class="st2" points="76.91 355.09 77.19 246.22 77.47 230.54 78.02 213.16 78.58 202.4 79.13 194.66 79.69 188.68 80.53 181.84 81.36 176.67 82.19 172.68 83.03 169.54 83.86 167.06 84.7 165.1 85.53 163.58 86.37 162.41 87.2 161.55 88.04 160.95 88.87 160.57 89.71 160.39 90.54 160.38 91.37 160.53 92.21 160.81 93.32 161.38 94.43 162.14 95.83 163.31 97.22 164.71 98.89 166.64 100.83 169.18 103.06 172.38 105.56 176.29 108.34 180.93 111.96 187.31 116.41 195.49 124.2 210.2 133.38 227.46 139.22 238.11 144.51 247.41 149.24 255.42 153.69 262.67 158.14 269.62 162.31 275.84 166.48 281.79 170.66 287.45 174.55 292.48 178.45 297.26 182.34 301.79 186.23 306.08 190.13 310.14 194.02 313.96 197.92 317.55 201.81 320.92 205.71 324.07 209.6 327.01 213.5 329.76 217.39 332.3 221.29 334.66 225.18 336.84 229.07 338.85 233.25 340.82 237.42 342.61 241.59 344.23 246.04 345.79 250.49 347.18 255.22 348.48 259.95 349.62 264.96 350.66 270.25 351.59 275.81 352.41 281.65 353.1 288.05 353.7 295 354.19 302.79 354.57 311.69 354.84 322.82 355.01 338.68 355.09 355.09 355.09"/>
    </g>
    <g class="st6">
      <polyline class="st2" points="76.91 355.09 97.49 355.02 105.28 354.83 111.4 354.53 116.69 354.13 121.42 353.62 125.87 352.98 130.04 352.23 133.94 351.38 137.83 350.36 141.45 349.25 145.06 347.97 148.4 346.63 151.74 345.13 155.08 343.47 158.42 341.63 161.75 339.6 165.09 337.39 168.43 334.99 171.77 332.39 175.11 329.59 178.45 326.58 181.78 323.38 185.4 319.68 189.02 315.75 192.63 311.59 196.53 306.86 200.42 301.87 204.59 296.27 209.05 290.02 213.77 283.09 219.06 275.05 225.18 265.45 234.36 250.69 244.1 235.11 249.66 226.51 254.11 219.92 258.01 214.44 261.34 210 264.4 206.18 267.19 202.93 269.97 199.94 272.47 197.49 274.7 195.5 276.92 193.73 278.87 192.35 280.82 191.16 282.76 190.15 284.71 189.34 286.38 188.8 288.05 188.43 289.72 188.23 291.39 188.19 293.06 188.33 294.73 188.66 296.39 189.18 298.06 189.89 299.73 190.81 301.4 191.93 303.07 193.28 304.74 194.84 306.41 196.64 308.08 198.67 309.75 200.93 311.42 203.45 313.36 206.69 315.31 210.29 317.26 214.25 319.21 218.56 321.15 223.25 323.1 228.31 325.33 234.56 327.55 241.3 329.78 248.54 332.28 257.28 334.78 266.63 337.29 276.57 340.07 288.28 343.13 301.85 347.02 319.92 352.31 344.5 353.98 351.48 354.81 354.4 355.09 355.09"/>
    </g>
    <g class="st5">
      <polyline class="st2" points="76.91 355.09 77.47 353.51 78.3 350.39 79.69 344.5 82.19 333.03 89.98 296.84 93.04 283.52 95.83 272.08 98.33 262.4 100.83 253.32 103.34 244.86 105.56 237.87 107.79 231.37 110.01 225.37 112.24 219.86 114.19 215.44 116.13 211.38 118.08 207.69 120.03 204.34 121.97 201.33 123.64 199.03 125.31 196.96 126.98 195.13 128.65 193.52 130.32 192.14 131.99 190.98 133.66 190.03 135.33 189.28 137 188.73 138.67 188.37 140.33 188.2 142 188.21 143.67 188.39 145.34 188.73 147.01 189.24 148.68 189.89 150.63 190.85 152.57 191.99 154.52 193.32 156.75 195.04 158.97 196.97 161.48 199.38 163.98 202.01 166.76 205.18 169.82 208.93 172.88 212.93 176.5 217.93 180.39 223.59 184.84 230.34 190.41 239.07 199.59 253.84 209.32 269.41 215.44 278.9 220.45 286.38 225.18 293.18 229.63 299.29 233.8 304.75 237.7 309.59 241.59 314.18 245.21 318.2 248.83 321.99 252.44 325.54 255.78 328.61 259.12 331.47 262.46 334.14 265.79 336.61 269.13 338.89 272.47 340.97 275.81 342.87 279.15 344.6 282.49 346.15 285.82 347.54 289.44 348.87 293.06 350.03 296.67 351.03 300.57 351.94 304.74 352.75 308.91 353.4 313.36 353.94 318.37 354.38 323.93 354.71 330.61 354.94 338.96 355.06 354.53 355.09 355.09 355.09"/>
    </g>
    <g class="st0">
      <polyline class="st2" points="76.91 355.09 84.42 354.39 90.82 353.64 96.66 352.79 101.95 351.87 106.67 350.88 110.85 349.85 114.74 348.73 118.36 347.53 121.7 346.26 124.76 344.94 127.82 343.45 130.6 341.92 133.38 340.2 135.88 338.47 138.39 336.54 140.89 334.4 143.12 332.29 145.34 329.97 147.57 327.41 149.79 324.58 151.74 321.87 153.69 318.92 155.63 315.7 157.58 312.2 159.53 308.37 161.48 304.21 163.42 299.68 165.37 294.76 167.32 289.41 169.27 283.61 171.21 277.33 173.16 270.54 175.11 263.23 177.33 254.2 179.56 244.45 181.78 233.96 184.29 221.32 186.79 207.84 189.57 192.02 193.47 168.85 199.31 133.98 201.81 120.02 203.76 109.99 205.43 102.16 206.82 96.28 208.21 91.06 209.32 87.41 210.44 84.27 211.55 81.65 212.38 80.05 213.22 78.78 214.05 77.83 214.61 77.38 215.17 77.08 215.72 76.93 216.28 76.93 216.83 77.08 217.39 77.38 217.95 77.83 218.78 78.78 219.62 80.05 220.45 81.65 221.29 83.56 222.4 86.58 223.51 90.1 224.62 94.11 226.01 99.73 227.41 105.98 229.07 114.19 231.02 124.56 233.53 138.83 237.42 162.12 242.71 193.63 245.77 210.9 248.27 224.2 250.77 236.65 253 246.96 255.22 256.53 257.45 265.38 259.67 273.52 261.62 280.08 263.57 286.15 265.52 291.76 267.46 296.92 269.41 301.67 271.36 306.04 273.31 310.05 275.25 313.74 277.2 317.12 279.15 320.22 281.37 323.45 283.6 326.38 285.82 329.04 288.05 331.45 290.27 333.63 292.5 335.62 295 337.64 297.51 339.45 300.01 341.08 302.79 342.7 305.57 344.15 308.63 345.56 311.97 346.92 315.31 348.1 318.93 349.23 322.82 350.28 326.99 351.25 331.72 352.18 337.01 353.05 342.85 353.85 349.25 354.56 355.09 355.09"/>
    </g>
  </g>
</svg>